@startuml
skinparam classAttributeIconSize 0
hide methods

class Administrator{
}

class Nurse{
}

class SNSUser{
- name
 - email
 - address
 - phoneNumber
 - gender
 - birthDate
 - SNSNumber
 - citizenCardNumber
}

class Receptionist{
}

class CenterCoordinator{
}

class Company {
- designation
}

class SMSMessage {
- informationAppointment
- timeRecovery
}

class EmailMessage {
- informationAppointment
- timeRecovery
}

class Vaccine {
- name
 - id
 -  brand
 -  numDoses
 -  dosage
 -  recoveryPeriod
 -  doseInterval
 -  typeCode
}

class VaccineType {
- ageGroup
- dose
- vaccineDosage
}

class CheckCenterCapacity {
- centerCapacity
- date
- time
}

class ScheduleVaccine {
- userNumberSNS
- vaccinationCenter
- date
- time
- typeOfVaccine
}

class VaccinationCenter {
  - name
  - address
  - emailAddress
  - phoneNumber
  - faxNumber
  - websiteAddress
  - openingHours
  - closingHours
  - slotDuration
  - maxVaccines
  - coordinator
}
class HealthCareCenter {
  - name
    - address
    - emailAddress
    - phoneNumber
    - faxNumber
    - websiteAddress
    - openingHours
    - closingHours
    - slotDuration
    - maxVaccines
    - coordinator
    -AGES
    -ARS
  }
class Employee {
     -name
     -email
     -address
     -phoneNumber
     -citizenCardNumber
     -role
}

class CSVFile{
+ arrivalDate
+departureDate
}
class CenterPerformance{
+performanceList
+maxSumSublist
+maxSum
+timeInterval
}


Administrator "*"---"*" Employee: registers >
Administrator "*"---"*" SNSUser : registers >
Administrator "*"---"*" VaccinationCenter : registers >
Administrator "*"---"*" HealthCareCenter : registers >

Company "1"---"*" Administrator : knows >
SNSUser "*"---"1" Company : is client >



Nurse "*"---"*" Vaccine : administrates >
Nurse "*"---"1" VaccinationCenter : works at >
Nurse "*"---"*" Employee: is >

Receptionist "*"---"*" SNSUser : gives info >
Receptionist "*"---"1" VaccinationCenter : works at >
Receptionist "*"---"*" Employee: is >

CenterCoordinator "*"--"1" Company : works for >
CenterCoordinator "*"---"*" Employee: is >
CenterCoodinator "*"--"1" CSVFile : "loads into the system" >
CenterCoodinator --> CenterPerformance : "Wants to know"
CSVFile "1"--"1" CenterPerformance :"has it's information treated to become" >


Vaccine "1"--"1" VaccineType : is of >
Vaccine "*"--"1" VaccineTime : has >

ScheduleVaccine "1"--"*" CheckCenterCapacity : verifies >
HealthCareCenter "*"---"*" Vaccine : stores >
VaccineType "*"--"1" Administrator : created by >
Vaccine "*"--"1" Administrator : created by >

Receptionist "1"--"*" ScheduleVaccine : does >
ScheduleVaccine "1"--"1" EmailMessage : emits >
ScheduleVaccine "1"--"1" SMSMessage : emits >
SNSUser "1"--"*" ScheduleVaccine : does >
Administrator "1"--"*" HealthCareCenter : registers >



@endum