@startuml
skinparam classAttributeIconSize 0
left to right direction

class VaccinationCenterUI{}
class SpecifyNewVaccinationCenterController{}
class VaccinationCenterStore{}
class Company{}



VaccinationCenterUI ..> SpecifyNewVaccinationCenterController
Company "1"-->"*" VaccinationCenterStore : has a >
VaccinationCenterStore "1"-->"*" VaccinationCenter : keeps info >
SpecifyNewVaccinationCenterController ..> Company
SpecifyNewVaccinationCenterController ..> VaccinationCenterStore
SpecifyNewVaccinationCenterController ..> VaccinationCenter


@enduml

